<svg width="40" height="40" viewBox="0 0 40 40" fill="none" xmlns="http://www.w3.org/2000/svg">
<path fill-rule="evenodd" clip-rule="evenodd" d="M19.9998 28.1938C19.2296 28.1938 18.6045 27.5687 18.6045 26.7985V13.1668C18.6045 12.3966 19.2296 11.7715 19.9998 11.7715C20.7701 11.7715 21.3952 12.3966 21.3952 13.1668V26.7985C21.3952 27.5687 20.7701 28.1938 19.9998 28.1938Z" fill="#262262" fill-opacity="0.6"/>
<path fill-rule="evenodd" clip-rule="evenodd" d="M26.8223 21.3771H13.1795C12.4074 21.3771 11.7842 20.752 11.7842 19.9818C11.7842 19.2115 12.4074 18.5864 13.1795 18.5864H26.8223C27.5926 18.5864 28.2177 19.2115 28.2177 19.9818C28.2177 20.752 27.5926 21.3771 26.8223 21.3771Z" fill="#262262" fill-opacity="0.6"/>
<path fill-rule="evenodd" clip-rule="evenodd" d="M11.2815 2.79102C6.12432 2.79102 2.79036 6.32032 2.79036 11.7864V28.2143C2.79036 33.6803 6.12432 37.2096 11.2815 37.2096H28.7178C33.8769 37.2096 37.209 33.6803 37.209 28.2143V11.7864C37.209 6.32032 33.8769 2.79102 28.7178 2.79102H11.2815ZM28.7181 40H11.2819C4.53395 40 0 35.2633 0 28.214V11.786C0 4.73674 4.53395 0 11.2819 0H28.7181C35.466 0 40 4.73674 40 11.786V28.214C40 35.2633 35.466 40 28.7181 40Z" fill="#262262" fill-opacity="0.6"/>
</svg>
